<?xml version="1.0" encoding="utf-8"?>
<!-- Generator: Adobe Illustrator 19.2.1, SVG Export Plug-In . SVG Version: 6.00 Build 0)  -->
<svg version="1.1" id="layer" xmlns="http://www.w3.org/2000/svg" xmlns:xlink="http://www.w3.org/1999/xlink" x="0px" y="0px"
	 viewBox="0 0 652 652" style="enable-background:new 0 0 652 652;" xml:space="preserve">
<style type="text/css">
	.st0{fill:#005B94;}
	.st1{fill:#D71920;}
</style>
<g>
	<rect x="439.3" y="374.3" class="st0" width="24.9" height="69.8"/>
	<rect x="177.7" y="374.3" class="st0" width="24.9" height="69.8"/>
	<polygon class="st0" points="122.2,374.3 122.2,401.1 93.8,401.1 93.8,374.3 68.6,374.3 68.6,444.1 93.8,444.1 93.8,416.1 
		122.2,416.1 122.2,444.1 147.3,444.1 147.3,374.3 	"/>
	<path class="st0" d="M481.7,253.7h54.7v-25.9h-56.7c-57.6,0-78.2,25.3-78.2,59.4c0,34.2,18,59.4,78.2,59.4h56.7v-25.9h-56.2
		c-28.1,0-32.8-14.4-32.8-33.5C447.4,268.2,452.3,253.7,481.7,253.7"/>
	<path class="st0" d="M636.5,323.8h-5.8c-28.1,0-32.8-17.5-32.8-36.6c0-19.1,3.4-36.5,32.8-36.5h5.8c28.1,0,32.8,20.2,32.8,36.5
		C669.4,303.6,665.9,323.8,636.5,323.8 M633.7,224.2h-0.2c-57.7,0-81.5,27.3-81.5,63c0,35.8,21.2,63.1,81.5,63.1h0.2
		c57.6,0,81.5-27.3,81.5-63.1C715.2,251.5,694,224.2,633.7,224.2"/>
	<path class="st0" d="M7.1,253.7h54.7v-25.9H5.1c-57.6,0-78.2,25.3-78.2,59.4c0,34.2,17.9,59.4,78.2,59.4h56.7v-25.9H5.5
		c-28.1,0-32.8-14.4-32.8-33.5C-27.3,268.2-22.4,253.7,7.1,253.7"/>
	<path class="st0" d="M161.9,323.8H156c-28.1,0-32.8-17.5-32.8-36.6c0-19.1,3.4-36.5,32.8-36.5h5.8c28.1,0,32.8,20.2,32.8,36.5
		C194.7,303.6,191.3,323.8,161.9,323.8 M159.1,224.2h-0.2c-57.7,0-81.5,27.3-81.5,63c0,35.8,21.2,63.1,81.5,63.1h0.2
		c57.6,0,81.5-27.3,81.5-63.1C240.5,251.5,219.3,224.2,159.1,224.2"/>
	<path class="st0" d="M323.3,298.9c11.6,0,14.5,3.7,14.5,10.9c0,7.3-3,10.9-14.5,10.9h-62.2v25.9h81.2c18.1,0,43.7-9.8,43.7-35.6
		c0-25.7-25.5-35.4-43.7-35.4h-26.7c-11.6,0-14.6-3.6-14.6-10.9c0-7.3,3-11,14.6-11H379v-25.9h-79.3c-18.1,0-43.6,9.9-43.6,35.6
		s25.6,35.4,43.6,35.4H323.3z"/>
	<path class="st0" d="M5.4,416.1c6.8,0,8.5,2.1,8.5,6.4s-1.7,6.4-8.5,6.4h-40.9v15.2h52.1c10.6,0,25.6-5.8,25.6-20.9
		c0-15.2-15-20.8-25.6-20.8H-3.5c-6.8,0-8.5-2.1-8.5-6.4c0-4.3,1.7-6.4,8.5-6.4h41.6v-15.2h-50.9c-10.6,0-25.6,5.8-25.6,20.9
		s15,20.8,25.6,20.8H5.4z"/>
	<path class="st0" d="M573.6,374.3v69.8h-12.4c-11.9,0-17.9-2.5-22.7-9.8c-5.7-8.9-18-26.9-18-26.9v36.8h-24.9v-69.8H508
		c11.3,0,16.4,2.8,20.3,8.9c6.3,9.9,20.5,31.8,20.5,31.8v-40.8H573.6z"/>
	<path class="st0" d="M375.5,408.2h-14.4v-20h14.4c10.1,0,13.6,2.9,13.6,10C389,405.3,385.9,408.2,375.5,408.2 M376.3,374.3h-40
		v69.8h24.9v-22h15.2c29.9,0,38.9-8.5,38.9-23.9C415.2,382.8,407.6,374.3,376.3,374.3"/>
	<path class="st0" d="M272.1,408.2h-14.3v-20h14.3c10.2,0,13.6,2.9,13.6,10C285.7,405.3,282.6,408.2,272.1,408.2 M272.9,374.3h-40
		v69.8h24.9v-22h15.2c30,0,39-8.5,39-23.9C311.9,382.8,304.3,374.3,272.9,374.3"/>
</g>
<g>
	<path class="st0" d="M643.5,389.5h37v-15.2h-37.4c-33.9,0-46,14.8-46,34.9c0,20.1,10.6,34.9,46,34.9h37.4v-34.9h-24.8v19.7h-13.1
		c-16.5,0-19.3-8.5-19.3-19.7C623.3,398,626.3,389.5,643.5,389.5"/>
	<path class="st0" d="M430,467.3c-41.8,53-105.9,86.9-177.8,86.9c-71.9,0-136-33.9-177.8-86.9H40.1c47.4,63,124.8,104.1,212.2,104.1
		c87.4,0,164.7-41.1,212.2-104.1H430z"/>
	<path class="st1" d="M567.6,467.3c-41.8,53-105.9,86.9-177.8,86.9c-71.9,0-136-33.9-177.8-86.9h-34.4
		c47.4,63,124.7,104.1,212.2,104.1c87.4,0,164.7-41.1,212.2-104.1H567.6z"/>
	<path class="st1" d="M193.7,202.2c39.8-68,112.7-113.6,196.1-113.6c83.3,0,156.2,45.6,196,113.6h33.7
		C575.3,124.3,489,71.4,389.8,71.4c-99.2,0-185.5,52.9-229.8,130.9H193.7z"/>
	<path class="st0" d="M56.2,202.2C96,134.2,168.9,88.6,252.3,88.6c83.4,0,156.2,45.6,196,113.6H482
		C437.8,124.3,351.5,71.4,252.3,71.4c-99.2,0-185.5,52.9-229.8,130.9H56.2z"/>
</g>
</svg>
