<?xml version="1.0" ?><!DOCTYPE svg  PUBLIC '-//W3C//DTD SVG 1.1//EN'
        'http://www.w3.org/Graphics/SVG/1.1/DTD/svg11.dtd'>
<svg enable-background="new 0 0 85 85" height="85px" id="Layer_1" version="1.1" viewBox="0 0 85 85" width="85px"
     xml:space="preserve" xmlns="http://www.w3.org/2000/svg"><g><path d="M42.259,71.602H17.54   c-1.65,0-3-1.351-3-3V23.435c0-1.65,1.35-3,3-3h3.678" fill="none" stroke="#ca1f26" stroke-linejoin="round" stroke-miterlimit="10" stroke-width="2.5"/><path
        d="M50.718,20.435h3.822   c1.649,0,3,1.35,3,3v16.838" fill="none" stroke="#ca1f26" stroke-linejoin="round"
        stroke-miterlimit="10" stroke-width="2.5"/><circle cx="56.626" cy="59.106" fill="none" r="13.834"
                                                           stroke="#ca1f26" stroke-miterlimit="10" stroke-width="2.5"/><polyline
        fill="none" points="50.3,58.569 55.926,63.14    63.134,53.823  " stroke="#ca1f26" stroke-miterlimit="10"
        stroke-width="2.5"/><path
        d="M45.987,16.962h-5.011   c-0.055-2.715-2.263-4.9-4.989-4.9c-2.728,0-4.936,2.186-4.99,4.9h-5.009v7.631h19.999V16.962z"
        fill="none" stroke="#ca1f26" stroke-linecap="round" stroke-miterlimit="10" stroke-width="2.5"/><g><g><rect fill="#ca1f26" height="0.86" stroke="#ca1f26" stroke-miterlimit="10" stroke-width="2.5" width="0.86" x="23.518" y="35.541"/></g>
    <line fill="none" stroke="#ca1f26" stroke-miterlimit="10" stroke-width="2.5" x1="29.936" x2="50.26" y1="35.971"
          y2="35.971"/></g><g><g><rect fill="#ca1f26" height="0.861" stroke="#ca1f26" stroke-miterlimit="10" stroke-width="2.5" width="0.86" x="23.518" y="43.596"/></g>
    <line fill="none" stroke="#ca1f26" stroke-miterlimit="10" stroke-width="2.5" x1="29.936" x2="45.26" y1="44.027"
          y2="44.027"/></g><g><g><rect fill="#ca1f26" height="0.86" stroke="#ca1f26" stroke-miterlimit="10" stroke-width="2.5" width="0.86" x="23.518" y="51.652"/></g>
    <line fill="none" stroke="#ca1f26" stroke-miterlimit="10" stroke-width="2.5" x1="29.936" x2="39.146" y1="52.082"
          y2="52.082"/></g><g><g><rect fill="#ca1f26" height="0.859" stroke="#ca1f26" stroke-miterlimit="10" stroke-width="2.5" width="0.86" x="23.518" y="59.709"/></g>
    <line fill="none" stroke="#ca1f26" stroke-miterlimit="10" stroke-width="2.5" x1="29.936" x2="37.765" y1="60.139"
          y2="60.139"/></g></g></svg>