<?xml version="1.0" ?><!DOCTYPE svg  PUBLIC '-//W3C//DTD SVG 1.1//EN'
        'http://www.w3.org/Graphics/SVG/1.1/DTD/svg11.dtd'>
<svg enable-background="new 0 0 85 85" height="85px" id="Layer_1" version="1.1" viewBox="0 0 85 85" width="85px"
     xml:space="preserve" xmlns="http://www.w3.org/2000/svg"><g><path d="   M75.932,42.014C64.77,43.336,61.07,36.707,61.07,36.707s-3.701,6.629-14.879,5.307c0,0-1.713,21.887,14.879,28.92   C77.643,63.9,75.932,42.014,75.932,42.014z" fill="none" stroke="#394553" stroke-linecap="round" stroke-linejoin="round" stroke-miterlimit="10" stroke-width="2.5"/><polyline
        fill="none" points="54.945,52.918 60.57,57.488    67.779,48.172  " stroke="#ca1f26" stroke-miterlimit="10"
        stroke-width="2.5"/><g><g><polyline fill="none" points="     45.887,62.275 34.901,66.702 34.901,36.229 61.023,25.345 61.023,32.418    " stroke="#ca1f26" stroke-linejoin="round" stroke-miterlimit="10" stroke-width="2.5"/><polyline
        fill="none" points="     21.061,38.908 21.061,30.52 46.512,19.746    " stroke="#ca1f26" stroke-linecap="round"
        stroke-linejoin="round" stroke-miterlimit="10" stroke-width="2.5"/><polyline fill="none"
                                                                                     points="     34.901,36.229 9.019,25.345 9.019,55.585 34.901,66.702    "
                                                                                     stroke="#ca1f26"
                                                                                     stroke-linecap="round"
                                                                                     stroke-linejoin="round"
                                                                                     stroke-miterlimit="10"
                                                                                     stroke-width="2.5"/><polyline
        fill="none" points="     9.019,25.345 34.312,14.067 61.023,25.345    " stroke="#ca1f26" stroke-linecap="round"
        stroke-linejoin="round" stroke-miterlimit="10" stroke-width="2.5"/></g></g></g></svg>