<?xml version="1.0" ?><!DOCTYPE svg  PUBLIC '-//W3C//DTD SVG 1.1//EN'
        'http://www.w3.org/Graphics/SVG/1.1/DTD/svg11.dtd'>
<svg enable-background="new 0 0 85 85" height="85px" id="Layer_1" version="1.1" viewBox="0 0 85 85" width="85px"
     xml:space="preserve" xmlns="http://www.w3.org/2000/svg"><g><g><line fill="none" stroke="#ca1f26" stroke-linejoin="round" stroke-miterlimit="10" stroke-width="2.5" x1="36.138" x2="61.203" y1="59.205" y2="59.205"/><polyline
        fill="none" points="    74.957,38.189 66.139,38.189 66.139,30.751   " stroke="#ca1f26" stroke-linejoin="round"
        stroke-miterlimit="10" stroke-width="2.5"/><path
        d="    M61.156,60.531c0,2.615,2.121,4.734,4.734,4.734c2.615,0,4.734-2.119,4.734-4.734c0-2.611-2.119-4.732-4.734-4.732    C63.277,55.799,61.156,57.92,61.156,60.531z"
        fill="none" stroke="#ca1f26" stroke-linecap="round" stroke-linejoin="round" stroke-miterlimit="10"
        stroke-width="2.5"/><path
        d="    M22.715,60.531c0,2.615,2.119,4.734,4.732,4.734c2.615,0,4.734-2.119,4.734-4.734c0-2.611-2.119-4.732-4.734-4.732    C24.834,55.799,22.715,57.92,22.715,60.531z"
        fill="none" stroke="#ca1f26" stroke-linecap="round" stroke-linejoin="round" stroke-miterlimit="10"
        stroke-width="2.5"/><path
        d="    M9.016,60.531c0,2.615,2.119,4.734,4.733,4.734c2.615,0,4.734-2.119,4.734-4.734c0-2.611-2.119-4.732-4.734-4.732    C11.135,55.799,9.016,57.92,9.016,60.531z"
        fill="none" stroke="#ca1f26" stroke-linecap="round" stroke-linejoin="round" stroke-miterlimit="10"
        stroke-width="2.5"/><polyline fill="none" points="3.627,54.551     3.627,59.846 8.874,59.846   "
                                      stroke="#ca1f26" stroke-linejoin="round" stroke-miterlimit="10"
                                      stroke-width="2.5"/><polyline fill="none"
                                                                    points="    63.271,50.564 72.523,50.564 75.939,59.939 81.514,59.977 81.514,41.642 73.594,26.404 60.873,26.404 60.873,45.217   "
                                                                    stroke="#ca1f26" stroke-linejoin="round"
                                                                    stroke-miterlimit="10" stroke-width="2.5"/><line
        fill="none" stroke="#ca1f26" stroke-linecap="round" stroke-linejoin="round" stroke-miterlimit="10"
        stroke-width="2.5" x1="18.603" x2="22.612" y1="59.807" y2="59.807"/></g><g><g><line fill="none" stroke="#ca1f26" stroke-linecap="round" stroke-linejoin="round" stroke-miterlimit="10" stroke-width="2.5" x1="25.685" x2="25.685" y1="25.643" y2="44.643"/><line
        fill="none" stroke="#ca1f26" stroke-linecap="round" stroke-linejoin="round" stroke-miterlimit="10"
        stroke-width="2.5" x1="18.213" x2="18.213" y1="25.643" y2="44.643"/><line fill="none" stroke="#ca1f26"
                                                                                  stroke-linecap="round"
                                                                                  stroke-linejoin="round"
                                                                                  stroke-miterlimit="10"
                                                                                  stroke-width="2.5" x1="10.742"
                                                                                  x2="10.742" y1="25.643" y2="44.643"/><line
        fill="none" stroke="#ca1f26" stroke-linecap="round" stroke-linejoin="round" stroke-miterlimit="10"
        stroke-width="2.5" x1="33.155" x2="33.155" y1="25.643" y2="44.643"/><line fill="none" stroke="#ca1f26"
                                                                                  stroke-linecap="round"
                                                                                  stroke-linejoin="round"
                                                                                  stroke-miterlimit="10"
                                                                                  stroke-width="2.5" x1="40.626"
                                                                                  x2="40.626" y1="25.643" y2="44.643"/><line
        fill="none" stroke="#ca1f26" stroke-linecap="round" stroke-linejoin="round" stroke-miterlimit="10"
        stroke-width="2.5" x1="48.098" x2="48.098" y1="25.643" y2="44.643"/></g>
    <rect fill="none" height="30.814" stroke="#ca1f26" stroke-linejoin="round" stroke-miterlimit="10" stroke-width="2.5"
          width="51.867" x="3.486" y="19.734"/></g></g></svg>